<svg xmlns="http://www.w3.org/2000/svg" width="512" height="512" viewBox="0 0 488.152 488.152"><g fill="currentColor" fill-rule="evenodd"><path d="M197.022 262.007c0-4.345-3.525-7.865-7.873-7.865h-27.474a7.867 7.867 0 0 0-7.868 7.865v27.47a7.87 7.87 0 0 0 7.868 7.872h27.474a7.87 7.87 0 0 0 7.873-7.872v-27.47zM265.682 262.007a7.867 7.867 0 0 0-7.865-7.865H230.34a7.867 7.867 0 0 0-7.87 7.865v27.47a7.87 7.87 0 0 0 7.87 7.872h27.477c4.34 0 7.865-3.522 7.865-7.872v-27.47zM334.345 262.007a7.867 7.867 0 0 0-7.868-7.865h-27.474c-4.348 0-7.873 3.52-7.873 7.865v27.47a7.87 7.87 0 0 0 7.873 7.872h27.474a7.87 7.87 0 0 0 7.868-7.872v-27.47zM197.022 330.674a7.867 7.867 0 0 0-7.873-7.87h-27.474a7.867 7.867 0 0 0-7.868 7.87v27.465a7.869 7.869 0 0 0 7.868 7.869h27.474a7.87 7.87 0 0 0 7.873-7.87v-27.464zM265.682 330.674a7.866 7.866 0 0 0-7.865-7.87H230.34a7.867 7.867 0 0 0-7.87 7.87v27.465a7.869 7.869 0 0 0 7.87 7.869h27.477a7.868 7.868 0 0 0 7.865-7.87v-27.464zM334.345 330.674a7.866 7.866 0 0 0-7.865-7.87h-27.477a7.867 7.867 0 0 0-7.873 7.87v27.465a7.87 7.87 0 0 0 7.873 7.869h27.477a7.868 7.868 0 0 0 7.865-7.87v-27.464z" data-original="#000000" class="active-path"/><path d="M383.47 109.268v41.959c0 18.964-15.384 34.247-34.346 34.247h-21.667c-18.963 0-34.552-15.283-34.552-34.247v-42.11h-97.658v42.11c0 18.964-15.588 34.247-34.549 34.247h-21.67c-18.962 0-34.346-15.283-34.346-34.247v-41.959c-16.572.5-30.19 14.213-30.19 31.068V386.23c0 17.172 13.918 31.275 31.09 31.275H382.57c17.146 0 31.09-14.133 31.09-31.275V140.336c0-16.855-13.617-30.568-30.19-31.068zm-10.063 261.65c0 7.421-6.017 13.442-13.44 13.442H127.593c-7.424 0-13.441-6.02-13.441-13.442V243.905c0-7.424 6.016-13.445 13.44-13.445h232.373c7.424 0 13.44 6.02 13.44 13.445l.001 127.013z" data-original="#000000" class="active-path"/><path d="M138.951 162.98h21.432c6.505 0 11.78-5.267 11.78-11.772V82.423c0-6.506-5.275-11.776-11.78-11.776H138.95c-6.506 0-11.78 5.27-11.78 11.776v68.785c0 6.505 5.274 11.772 11.78 11.772zM327.182 162.98h21.431c6.501 0 11.775-5.267 11.775-11.772V82.423c.001-6.506-5.273-11.776-11.775-11.776h-21.431c-6.505 0-11.78 5.27-11.78 11.776v68.785c0 6.505 5.275 11.772 11.78 11.772z" data-original="#000000" class="active-path"/></svg>