<svg xmlns="http://www.w3.org/2000/svg" width="512" height="512" viewBox="0 0 511.626 511.626"><g fill="currentColor" fill-rule="evenodd"><path d="M288.91 307.34c22.197-9.357 39.72-22.095 52.56-38.217 12.839-16.12 19.259-33.673 19.259-52.662 0-18.99-6.42-36.544-19.264-52.664-12.839-16.12-30.359-28.858-52.558-38.218-22.2-9.359-46.345-14.036-72.44-14.036-26.092 0-50.237 4.68-72.438 14.036-22.198 9.359-39.719 22.098-52.558 38.218-12.841 16.122-19.263 33.675-19.263 52.665 0 16.255 4.857 31.562 14.556 45.906 9.698 14.341 23.018 26.433 39.956 36.268-1.365 3.281-2.765 6.283-4.2 9.019a51.946 51.946 0 0 1-5.124 7.888c-1.98 2.53-3.516 4.51-4.61 5.94-1.093 1.434-2.868 3.453-5.329 6.044-2.46 2.596-4.031 4.304-4.713 5.121 0-.137-.273.173-.82.924-.548.751-.855 1.09-.923 1.027-.069-.074-.342.268-.82 1.02l-.718 1.127-.513 1.021a4.388 4.388 0 0 0-.41 1.229c-.068.407-.102.854-.102 1.33s.067.92.206 1.331c.274 1.774 1.059 3.206 2.357 4.304 1.297 1.09 2.695 1.635 4.2 1.635h.615c6.83-.956 12.704-2.048 17.622-3.279 21.038-5.462 40.028-14.209 56.967-26.23 12.294 2.187 24.316 3.28 36.064 3.28 26.095.009 50.243-4.667 72.441-14.027z" data-original="#000000" class="active-path"/><path d="M424.868 314.92c9.702-14.275 14.55-29.604 14.55-46 0-16.804-5.129-32.524-15.371-47.14-10.247-14.614-24.183-26.775-41.804-36.474 3.14 10.245 4.71 20.627 4.71 31.148 0 18.304-4.57 35.654-13.73 52.05-9.152 16.39-22.267 30.869-39.342 43.44-15.848 11.474-33.88 20.283-54.1 26.432-20.215 6.146-41.323 9.222-63.318 9.222-4.096 0-10.108-.27-18.03-.816 27.457 18.029 59.698 27.048 96.718 27.048 11.75 0 23.77-1.096 36.067-3.281 16.938 12.025 35.93 20.764 56.966 26.232 4.918 1.233 10.793 2.323 17.623 3.279 1.639.137 3.145-.342 4.51-1.435 1.366-1.092 2.255-2.591 2.663-4.502-.064-.82 0-1.27.206-1.335.201-.065.167-.511-.104-1.33-.27-.82-.407-1.23-.407-1.23l-.511-1.023a9.818 9.818 0 0 0-.717-1.124c-.342-.474-.614-.82-.82-1.024a25.943 25.943 0 0 1-.92-1.022 21.072 21.072 0 0 0-.82-.921c-.682-.82-2.253-2.527-4.711-5.124-2.461-2.593-4.234-4.608-5.327-6.042a622.91 622.91 0 0 0-4.61-5.944 51.827 51.827 0 0 1-5.125-7.889c-1.434-2.732-2.834-5.738-4.2-9.015 16.94-9.844 30.257-21.9 39.954-36.18z" data-original="#000000" class="active-path"/></svg>