<svg xmlns="http://www.w3.org/2000/svg" viewBox="0 0 512.092 512.092" width="512" height="512"><g fill="currentColor" fill-rule="evenodd"><path d="M294.547 217.52a79.29 79.29 0 0 0-13.687-11.009 81.546 81.546 0 0 0-43.975-12.872 81.192 81.192 0 0 0-57.663 23.88l-74.087 74.146a81.542 81.542 0 0 0-23.828 57.551c-.028 45.035 36.455 81.566 81.49 81.595a81.02 81.02 0 0 0 57.605-23.764l61.157-61.157a5.824 5.824 0 0 0-4.136-9.96h-2.33a98.033 98.033 0 0 1-37.276-7.222 5.824 5.824 0 0 0-6.348 1.281l-43.975 44.033c-13.656 13.655-35.795 13.655-49.45 0-13.655-13.655-13.655-35.794 0-49.45l74.379-74.32c13.644-13.627 35.747-13.627 49.391 0 9.196 8.655 23.539 8.655 32.734 0a23.299 23.299 0 0 0 6.756-14.794 23.3 23.3 0 0 0-6.757-17.939z" data-original="#000000" class="active-path"/><path d="M406.901 105.165c-31.846-31.846-83.479-31.846-115.325 0l-61.098 61.04a5.824 5.824 0 0 0-1.224 6.408 5.823 5.823 0 0 0 5.475 3.552h2.155a97.85 97.85 0 0 1 37.218 7.281 5.824 5.824 0 0 0 6.349-1.281l43.858-43.8c13.655-13.655 35.795-13.655 49.45 0 13.655 13.655 13.655 35.794 0 49.45l-54.634 54.575-.466.524-19.104 18.988c-13.644 13.627-35.748 13.627-49.392 0-9.195-8.654-23.538-8.654-32.733 0a23.302 23.302 0 0 0-6.757 14.91 23.3 23.3 0 0 0 6.757 17.94 80.846 80.846 0 0 0 23.297 16.308c1.224.582 2.447 1.048 3.67 1.573 1.223.524 2.504.931 3.727 1.397 1.223.467 2.505.874 3.728 1.224l3.436.931c2.33.583 4.66 1.049 7.048 1.456 2.876.427 5.773.7 8.679.816H275.44l3.495-.408c1.28-.058 2.62-.35 4.135-.35h1.98l4.02-.581 1.863-.35 3.378-.699h.641a81.535 81.535 0 0 0 37.8-21.434L406.9 220.49c31.848-31.846 31.848-83.479.002-115.325z" data-original="#000000" class="active-path"/></svg>