<svg id="Layer_1" xmlns="http://www.w3.org/2000/svg" viewBox="0 0 128 128"><g id="_x30_2RRNy.tif"><path class="st0" d="M55.2 126.3v-16.4H67.9c8.2 0 14.5-5.1 15.7-13.1 1.4-9.6-4.2-17.2-13.9-18.2-2.5-.3-5-.2-7.5-.2H45.8c-1.1 0-1.4.3-1.4 1.4.1 6 0 12 0 18V124c-11.8-4-21.5-10.7-29.1-20.2C4.9 90.8.3 75.9 1.6 59.3c2.9-37 36.3-62.1 70.9-57.4 36.5 4.9 60.6 39.3 53.3 74.8-7.2 35.6-40.8 54.5-70.6 49.6zm9.1-91.7L34.8 64.1h59L64.3 34.6z"/><path class="st0" d="M55.2 88c4.3 0 8.4-.2 12.5.1 2.5.2 4.4 1.9 4.9 4.5.5 2.5.2 4.9-2.1 6.5-1 .7-2.4 1.3-3.6 1.3-3.6.2-7.2.1-10.8.1-.6 0-1.1 0-1.1-.8V88.3c.2-.2.2-.3.2-.3z"/></g></svg>